<svg width="24" height="24" viewBox="0 0 24 24" fill="none" xmlns="http://www.w3.org/2000/svg">
<path d="M12 5C13.7724 5 15.4181 5.66296 16.6465 6.7832C15.9633 6.38908 15.1694 6.16699 14.333 6.16699C13.0559 6.16708 11.877 6.70698 11.042 7.54199C10.1824 8.37701 9.66708 9.55594 9.66699 10.833C9.66699 12.1102 10.2069 13.2899 11.042 14.125C11.877 14.9845 13.056 15.4999 14.333 15.5C15.6102 15.5 16.7899 14.9601 17.625 14.125C18.3438 13.4062 18.8423 12.432 18.9678 11.3604C18.9877 11.5714 19 11.7847 19 12C19 13.9158 18.1892 15.6839 16.9365 16.9365C15.6839 18.1892 13.9158 19 12 19C10.0842 19 8.31611 18.226 7.06348 16.9365C5.81085 15.6839 5 13.9158 5 12C5 10.0842 5.774 8.31611 7.06348 7.06348C8.31611 5.81085 10.0842 5 12 5Z" fill="white"/>
</svg>
