<svg width="24" height="24" viewBox="0 0 24 24" fill="none" xmlns="http://www.w3.org/2000/svg">
<path d="M12 18.1362C12.3296 18.1363 12.6123 18.4303 12.6123 18.7739V20.6646C12.6121 21.008 12.3295 21.3022 12 21.3022C11.6705 21.3022 11.3879 21.0081 11.3877 20.6646V18.7739C11.3877 18.4303 11.6703 18.1362 12 18.1362ZM6.54199 16.353C6.81153 16.0916 7.24315 16.0916 7.5127 16.353C7.7817 16.6144 7.78178 17.0322 7.5127 17.2935L6.0293 18.731C5.75975 18.9923 5.32909 18.9923 5.05957 18.731C4.79016 18.4696 4.79011 18.0519 5.05957 17.7905L6.54199 16.353ZM16.4883 16.353C16.7309 16.0916 17.1615 16.0916 17.458 16.353L18.9404 17.7905C19.21 18.0519 19.21 18.4696 18.9404 18.731C18.6709 18.9924 18.2402 18.9924 17.9707 18.731L16.4883 17.2935C16.2188 17.0321 16.2188 16.6144 16.4883 16.353ZM12 7.05225C13.3963 7.05227 14.6857 7.57766 15.5986 8.45264C16.5114 9.30258 17.1015 10.5025 17.1016 11.8022C17.1016 13.1022 16.5116 14.3028 15.5986 15.1528C14.6857 16.0028 13.3963 16.5522 12 16.5522C10.6037 16.5522 9.31436 16.0278 8.40137 15.1528C7.48837 14.3028 6.89746 13.1022 6.89746 11.8022C6.89751 10.5024 7.4617 9.30258 8.40137 8.45264C9.31436 7.60264 10.6037 7.05225 12 7.05225ZM4.60742 11.4067C4.96173 11.4068 5.26562 11.6808 5.26562 12.0005C5.26551 12.3201 4.96166 12.5942 4.60742 12.5942H2.6582C2.3039 12.5942 2.00012 12.3201 2 12.0005C2 11.6808 2.30383 11.4067 2.6582 11.4067H4.60742ZM21.3418 11.4067C21.6962 11.4067 22 11.6808 22 12.0005C21.9999 12.3201 21.6961 12.5942 21.3418 12.5942H19.3926C19.0384 12.5941 18.7345 12.32 18.7344 12.0005C18.7344 11.6808 19.0383 11.4069 19.3926 11.4067H21.3418ZM5.05957 5.26904C5.329 5.00796 5.7598 5.00807 6.0293 5.26904L7.5127 6.70654C7.78215 6.96786 7.78197 7.38653 7.5127 7.64795C7.27011 7.90935 6.83849 7.90934 6.54199 7.64795L5.05957 6.21045C4.79003 5.94905 4.79003 5.53044 5.05957 5.26904ZM17.9707 5.26904C18.2402 5.008 18.671 5.00803 18.9404 5.26904C19.21 5.53044 19.21 5.94905 18.9404 6.21045L17.458 7.64795C17.1885 7.90919 16.7578 7.90919 16.4883 7.64795C16.2187 7.38655 16.2187 6.96794 16.4883 6.70654L17.9707 5.26904ZM12 2.69873C12.3296 2.69877 12.6123 2.9928 12.6123 3.33643V5.22705C12.6121 5.57053 12.3295 5.86471 12 5.86475C11.6705 5.86475 11.3879 5.57056 11.3877 5.22705V3.33643C11.3877 2.99278 11.6703 2.69873 12 2.69873Z" fill="white"/>
</svg>
